Coordinates
version=1
nRows=17
nColumns=40
inDegrees=yes

Units are S.I. units (second, meters, Newtons, ...)
Angles are in degrees.

endheader
time	pelvis_tilt	pelvis_list	pelvis_rotation	pelvis_tx	pelvis_ty	pelvis_tz	hip_flexion_r	hip_adduction_r	hip_rotation_r	knee_angle_r	knee_angle_r_beta	ankle_angle_r	subtalar_angle_r	mtp_angle_r	hip_flexion_l	hip_adduction_l	hip_rotation_l	knee_angle_l	knee_angle_l_beta	ankle_angle_l	subtalar_angle_l	mtp_angle_l	lumbar_extension	lumbar_bending	lumbar_rotation	arm_flex_r	arm_add_r	arm_rot_r	elbow_flex_r	pro_sup_r	wrist_flex_r	wrist_dev_r	arm_flex_l	arm_add_l	arm_rot_l	elbow_flex_l	pro_sup_l	wrist_flex_l	wrist_dev_l
     15.75000000	      5.56123730	     17.77473775	     84.97651873	      0.60728365	      0.98897216	     -0.96797079	    -29.84299031	      2.87042993	      0.43317446	      9.65556640	      0.16852142	     19.87454865	      0.00000000	      0.00000000	      5.60451061	     -9.10447528	     -7.51288374	      2.94094653	      0.05132920	      8.63188005	      0.00000000	      0.00000000	    -35.42117809	      2.99030588	      9.93644649	     12.81736944	    -21.02150624	      2.90115337	    144.37171853	     86.15380348	      0.00000000	      0.00000000	      1.69102566	     -2.92572110	      0.96598822	    140.12042264	     84.30718861	      0.00000000	      0.00000000
     15.76000000	      5.53948759	     17.83445322	     84.66515359	      0.60570903	      0.98695756	     -0.96869757	    -29.84839189	      2.44058857	      0.58356122	     11.28622770	      0.19698183	     20.18745462	      0.00000000	      0.00000000	      6.04377455	     -8.98361833	     -7.72044235	      4.83099904	      0.08431684	      8.54981433	      0.00000000	      0.00000000	    -35.34923201	      2.79517430	     10.10462509	     12.50711933	    -20.63279148	      2.70633290	    144.37264906	     86.14622543	      0.00000000	      0.00000000	      1.55596519	     -2.67138924	      0.90104099	    140.00667749	     84.37327661	      0.00000000	      0.00000000
     15.77000000	      5.45871914	     17.97948649	     84.34491704	      0.60390236	      0.98515089	     -0.96942178	    -29.84864441	      1.90010341	      0.67559917	     13.05816948	      0.22790805	     20.36120399	      0.00000000	      0.00000000	      6.52665760	     -8.79498446	     -8.17067654	      7.21371673	      0.12590311	      8.31772748	      0.00000000	      0.00000000	    -35.36164111	      2.53840781	     10.19167083	     12.26826832	    -20.23631691	      2.46019184	    144.39120568	     86.14612659	      0.00000000	      0.00000000	      1.41040632	     -2.44394045	      0.84317407	    139.98700412	     84.41512342	      0.00000000	      0.00000000
     15.78000000	      5.28344083	     18.17591411	     84.00694157	      0.60200610	      0.98357381	     -0.97073511	    -29.84948311	      1.23536861	      0.82194264	     14.95896289	      0.26108316	     20.26535887	      0.00000000	      0.00000000	      6.72198313	     -8.45547405	     -8.54070138	      9.38129068	      0.16373441	      7.90086519	      0.00000000	      0.00000000	    -35.32863121	      2.18916369	     10.26332744	     11.92298121	    -19.74746458	      2.18558898	    144.35539780	     86.17769397	      0.00000000	      0.00000000	      1.24277886	     -2.26386433	      0.77987539	    140.00423942	     84.44118554	      0.00000000	      0.00000000
     15.79000000	      5.14092597	     18.37531864	     83.67555240	      0.59997240	      0.98215480	     -0.97263386	    -29.85089340	      0.60479160	      1.10707808	     16.89209726	      0.29482271	     20.11197351	      0.00000000	      0.00000000	      6.64493757	     -8.06172030	     -8.54911481	     11.02365146	      0.19239901	      7.55543343	      0.00000000	      0.00000000	    -35.19966243	      1.89349337	     10.33970305	     11.36717079	    -19.27902678	      2.03787877	    144.31836780	     86.20466213	      0.00000000	      0.00000000	      1.05828327	     -2.11080130	      0.68076354	    139.96172950	     84.46606012	      0.00000000	      0.00000000
     15.80000000	      4.85962346	     18.87102034	     83.32943369	      0.59751609	      0.98155917	     -0.97319434	    -29.84816442	     -0.25648140	      1.33368707	     19.19834315	      0.33507430	     19.82066209	      0.00000000	      0.00000000	      6.64172872	     -7.52840893	     -8.69844600	     12.97579824	      0.22647040	      6.77720015	      0.00000000	      0.00000000	    -35.58491914	      1.42720238	     10.32405332	     11.14424661	    -18.91062790	      1.89651227	    144.35332187	     86.21387305	      0.00000000	      0.00000000	      1.10806095	     -1.91627295	      0.53181292	    140.01706607	     84.50549115	      0.00000000	      0.00000000
     15.81000000	      4.36069873	     19.54438244	     82.05760723	      0.59577114	      0.98103049	     -0.97626437	    -29.85074064	     -1.95635546	      1.93497874	     21.85056615	      0.38136432	     18.85610420	      0.00000000	      0.00000000	      4.73411761	     -6.61052716	    -10.24512456	     12.55953017	      0.21920515	      5.40847834	      0.00000000	      0.00000000	    -35.69829141	      0.33773817	     10.93952304	     10.56513184	    -18.61664227	      1.77611135	    144.32390389	     86.21095566	      0.00000000	      0.00000000	      0.77649307	     -1.65284347	      0.34650510	    139.96426824	     84.60436326	      0.00000000	      0.00000000
     15.82000000	      4.16887626	     20.10823773	     80.86465284	      0.59413857	      0.98037541	     -0.98065226	    -29.85686587	     -3.22619957	      2.73847311	     24.34367092	      0.42487721	     17.64690851	      0.00000000	      0.00000000	      2.67488917	     -5.97833901	    -11.58034880	     11.91356920	      0.20793101	      4.75583602	      0.00000000	      0.00000000	    -35.49732557	     -0.38039999	     11.66436738	      9.63568754	    -18.32095842	      1.46795748	    144.34920042	     86.18449448	      0.00000000	      0.00000000	      0.29618113	     -1.44983799	      0.31878146	    139.82755534	     84.64012115	      0.00000000	      0.00000000
     15.83000000	      3.48833063	     20.89497608	     80.81672134	      0.59216705	      0.98138067	     -0.98129179	    -29.84965611	     -4.24399985	      3.10895887	     26.92222678	      0.46988150	     16.37236814	      0.00000000	      0.00000000	      2.94912449	     -5.27368964	    -11.18648489	     14.89273405	      0.25992724	      4.16012336	      0.00000000	      0.00000000	    -36.10380033	     -1.26058607	     11.17109556	      9.40838288	    -17.61960578	      1.50221565	    144.23916476	     86.21176650	      0.00000000	      0.00000000	      0.49422443	     -1.68259623	      0.09480552	    139.92823309	     84.59631572	      0.00000000	      0.00000000
     15.84000000	      2.88595919	     21.74310826	     80.74161771	      0.58992452	      0.98253181	     -0.98251280	    -29.83998645	     -5.16721277	      3.68364964	     29.58714254	      0.51639305	     14.88949672	      0.00000000	      0.00000000	      2.79471302	     -4.52357036	    -10.52119108	     17.51132643	      0.30563030	      3.68433100	      0.00000000	      0.00000000	    -36.68231460	     -2.02379964	     10.74886580	      9.07107875	    -17.00244451	      1.44879210	    144.20555259	     86.22473458	      0.00000000	      0.00000000	      0.75062032	     -1.91331709	     -0.13749202	    139.95762954	     84.54390914	      0.00000000	      0.00000000
     15.85000000	      2.29870919	     22.56331186	     80.55086345	      0.58715034	      0.98318890	     -0.98641670	    -29.82395191	     -6.33976247	      3.63612088	     32.28193819	      0.56342611	     12.49992181	      0.00000000	      0.00000000	      1.44406464	     -3.54576731	    -10.55383787	     18.51840223	      0.32320709	      4.23579239	      0.00000000	      0.00000000	    -36.81035477	     -2.67139743	     10.31584013	      8.48108298	    -16.47072013	      1.48694228	    144.13518232	     86.25064484	      0.00000000	      0.00000000	      0.38155039	     -1.96847678	     -0.50900508	    140.20102577	     84.47564875	      0.00000000	      0.00000000
     15.86000000	      0.97149586	     23.77209474	     80.14996954	      0.58501952	      0.98488891	     -0.99012611	    -29.81278655	     -8.47661542	      3.71176724	     35.33530547	      0.61671742	     10.36521905	      0.00000000	      0.00000000	     -0.42697191	     -1.68539570	    -11.01648334	     19.08224875	      0.33304807	      4.91528811	      0.00000000	      0.00000000	    -37.24741981	     -4.29514081	      9.89649381	      7.86250681	    -15.84004593	      1.39774604	    144.06944300	     86.31672703	      0.00000000	      0.00000000	      0.17440027	     -2.26806118	     -0.76353604	    140.32019077	     84.41835253	      0.00000000	      0.00000000
     15.87000000	     -0.10330719	     25.05697839	     79.88986332	      0.58267245	      0.98701573	     -0.99344789	    -29.78627895	    -10.26774344	      3.74687659	     38.33403588	      0.66905514	      7.45281153	      0.00000000	      0.00000000	     -2.63075712	     -0.00902612	    -11.36368753	     19.19396084	      0.33499781	      5.89872923	      0.00000000	      0.00000000	    -37.87762592	     -5.58978946	      9.36094053	      7.37862650	    -15.28114610	      1.39069403	    144.05270624	     86.39183508	      0.00000000	      0.00000000	      0.03878331	     -2.56065194	     -1.08386164	    140.59517515	     84.39649807	      0.00000000	      0.00000000
     15.88000000	     -1.16471233	     26.36632972	     79.77967603	      0.58031354	      0.98935892	     -0.99662437	    -29.74021732	    -11.92675676	      3.77612118	     41.22877258	      0.71957783	      3.87282381	      0.00000000	      0.00000000	     -5.15200950	      1.71167156	    -11.61474915	     18.67121148	      0.32587412	      6.46908823	      0.00000000	      0.00000000	    -38.56812370	     -6.79637560	      8.68897801	      6.95750981	    -14.74837174	      1.48051824	    144.04744726	     86.43049508	      0.00000000	      0.00000000	     -0.06099550	     -2.93012972	     -1.39826557	    140.93004512	     84.40159345	      0.00000000	      0.00000000
     15.89000000	     -2.31573237	     27.61510684	     79.91160175	      0.57824324	      0.99185731	     -1.00044461	    -29.67948937	    -13.54847871	      3.54655135	     43.99127264	      0.76779255	      0.47079237	      0.00000000	      0.00000000	     -7.80367463	      3.49676470	    -11.78661608	     17.72296314	      0.30932406	      6.79966135	      0.00000000	      0.00000000	    -39.13281832	     -7.98444773	      7.85423859	      6.38373753	    -14.07756285	      1.51770401	    144.07800135	     86.47551710	      0.00000000	      0.00000000	     -0.23570398	     -3.49122172	     -1.67647007	    141.31817390	     84.40759152	      0.00000000	      0.00000000
     15.90000000	     -3.03745889	     28.83735045	     80.05852375	      0.57619600	      0.99464357	     -1.00338571	    -29.54008953	    -14.55808919	      3.59522951	     46.63309581	      0.81390106	     -2.86159985	      0.00000000	      0.00000000	    -10.57626969	      4.83827603	    -11.76756246	     16.57238953	      0.28924276	      7.36454591	      0.00000000	      0.00000000	    -39.86840841	     -8.72422218	      7.02587605	      6.06688596	    -13.52059044	      1.62140888	    144.09235255	     86.47737744	      0.00000000	      0.00000000	     -0.32788360	     -4.05585614	     -1.95529118	    141.76418825	     84.34102487	      0.00000000	      0.00000000
     15.91000000	     -3.54166309	     29.89205800	     80.24292778	      0.57396243	      0.99724803	     -1.00427759	    -28.92510749	    -15.13165874	      3.99931775	     49.53048182	      0.86446999	     -5.48733418	      0.00000000	      0.00000000	    -12.88671964	      5.86389716	    -11.49525604	     15.81238162	      0.27597812	      7.75267615	      0.00000000	      0.00000000	    -40.80439114	     -9.19395630	      6.18432282	      6.13867148	    -13.08644247	      1.63863237	    144.26092653	     86.13966792	      0.00000000	      0.00000000	     -0.10143777	     -4.68892626	     -2.10708578	    142.31736895	     84.00456308	      0.00000000	      0.00000000
